<svg width="150" height="18" fill="none" xmlns="http://www.w3.org/2000/svg"><path d="M7.6 5.86c1.347 0 2.427.407 3.24 1.22.827.813 1.24 2.04 1.24 3.68V17H7.56v-5.46c0-1.253-.447-1.88-1.34-1.88-.507 0-.92.18-1.24.54-.307.347-.46.9-.46 1.66V17H0V6.06h4.3v1.08c.427-.427.92-.747 1.48-.96a5.07 5.07 0 0 1 1.82-.32Zm18.278 5.66c0 .067-.02.42-.06 1.06h-7.6c.16.413.427.733.8.96.374.213.84.32 1.4.32.48 0 .88-.06 1.2-.18.334-.12.694-.327 1.08-.62l2.36 2.38c-1.066 1.173-2.66 1.76-4.78 1.76-1.32 0-2.48-.24-3.48-.72-1-.493-1.773-1.173-2.32-2.04-.546-.867-.82-1.84-.82-2.92 0-1.093.267-2.067.8-2.92a5.599 5.599 0 0 1 2.22-2.02c.947-.48 2.007-.72 3.18-.72 1.107 0 2.114.22 3.02.66a5.123 5.123 0 0 1 2.18 1.94c.547.853.82 1.873.82 3.06Zm-5.98-2.58c-.466 0-.853.127-1.16.38-.306.253-.506.613-.6 1.08h3.52c-.093-.453-.293-.807-.6-1.06-.306-.267-.693-.4-1.16-.4Zm15.467 7.68c-.68.387-1.607.58-2.78.58-1.534 0-2.714-.367-3.54-1.1-.827-.747-1.24-1.86-1.24-3.34v-2.8h-1.5v-3.3h1.5V3.6h4.52v3.06h2.24v3.3h-2.24v2.76c0 .333.086.593.26.78.173.187.4.28.68.28.386 0 .726-.1 1.02-.3l1.08 3.14Zm5.824-9.96h2.38v3.3h-2.24V17h-4.52V9.96h-1.5v-3.3h1.5V6.6c0-1.427.426-2.553 1.28-3.38.853-.84 2.053-1.26 3.6-1.26.506 0 1 .047 1.48.14.48.093.88.227 1.2.4l-1.08 3.14c-.374-.173-.714-.26-1.02-.26-.334 0-.6.107-.8.32-.187.2-.28.513-.28.94v.02Zm3.64-4.5h4.52V17h-4.52V2.16Zm6.519 3.9h4.52V17h-4.52V6.06Zm2.26-.88c-.814 0-1.474-.213-1.98-.64a2.13 2.13 0 0 1-.74-1.66c0-.667.246-1.213.74-1.64.506-.44 1.166-.66 1.98-.66.826 0 1.486.207 1.98.62.493.413.74.947.74 1.6 0 .693-.247 1.267-.74 1.72-.494.44-1.154.66-1.98.66ZM64.77 17l-1.5-2.34-1.68 2.34h-4.9l4.14-5.42-4.02-5.52h5.1l1.56 2.32 1.64-2.32h4.74l-4.02 5.32 4.12 5.62h-5.18Zm8.65-8.82a3.276 3.276 0 0 1 1.48-1.4c.654-.32 1.447-.48 2.38-.48v1.86a3.748 3.748 0 0 0-.44-.02c-1.04 0-1.86.313-2.46.94-.586.613-.88 1.493-.88 2.64V17h-1.92V6.4h1.84v1.78Zm10.67 8.94c-1.054 0-2-.233-2.84-.7a5.17 5.17 0 0 1-1.98-1.92c-.467-.827-.7-1.76-.7-2.8 0-1.04.233-1.967.7-2.78A4.986 4.986 0 0 1 81.25 7c.84-.467 1.786-.7 2.84-.7 1.053 0 1.993.233 2.82.7a4.852 4.852 0 0 1 1.96 1.92c.48.813.72 1.74.72 2.78 0 1.04-.24 1.973-.72 2.8a5.027 5.027 0 0 1-1.96 1.92c-.827.467-1.767.7-2.82.7Zm0-1.68c.68 0 1.286-.153 1.82-.46.546-.32.973-.76 1.28-1.32.306-.573.46-1.227.46-1.96 0-.733-.154-1.38-.46-1.94a3.216 3.216 0 0 0-1.28-1.32c-.534-.307-1.14-.46-1.82-.46-.68 0-1.294.153-1.84.46-.534.307-.96.747-1.28 1.32-.307.56-.46 1.207-.46 1.94 0 .733.153 1.387.46 1.96.32.56.746 1 1.28 1.32.546.307 1.16.46 1.84.46Zm18.035-9.04V17h-1.82v-1.6c-.387.547-.9.973-1.54 1.28a4.8 4.8 0 0 1-2.06.44c-1.414 0-2.527-.387-3.34-1.16-.814-.787-1.22-1.94-1.22-3.46V6.4h1.92v5.88c0 1.027.246 1.807.74 2.34.493.52 1.2.78 2.12.78 1.013 0 1.813-.307 2.4-.92.586-.613.88-1.48.88-2.6V6.4h1.92Zm3.655-4.24h1.92V17h-1.92V2.16Zm15.166 9.6c0 .147-.013.34-.04.58h-8.6c.12.933.527 1.687 1.22 2.26.707.56 1.58.84 2.62.84 1.267 0 2.287-.427 3.06-1.28l1.06 1.24c-.48.56-1.08.987-1.8 1.28-.707.293-1.5.44-2.38.44-1.12 0-2.113-.227-2.98-.68a5.053 5.053 0 0 1-2.02-1.94c-.467-.827-.7-1.76-.7-2.8 0-1.027.227-1.953.68-2.78a4.964 4.964 0 0 1 1.9-1.92c.813-.467 1.727-.7 2.74-.7 1.013 0 1.913.233 2.7.7.8.453 1.42 1.093 1.86 1.92.453.827.68 1.773.68 2.84Zm-5.24-3.84c-.92 0-1.693.28-2.32.84-.613.56-.973 1.293-1.08 2.2h6.8c-.107-.893-.473-1.62-1.1-2.18-.613-.573-1.38-.86-2.3-.86Zm13.866 8.46c-.28.24-.627.427-1.04.56-.413.12-.84.18-1.28.18-1.067 0-1.893-.287-2.48-.86s-.88-1.393-.88-2.46V7.98h-1.8V6.4h1.8V4.08h1.92V6.4h3.04v1.58h-3.04v5.74c0 .573.14 1.013.42 1.32.293.307.707.46 1.24.46.587 0 1.087-.167 1.5-.5l.6 1.38Zm8.027 0c-.28.24-.626.427-1.04.56-.413.12-.84.18-1.28.18-1.066 0-1.893-.287-2.48-.86-.586-.573-.88-1.393-.88-2.46V7.98h-1.8V6.4h1.8V4.08h1.92V6.4h3.04v1.58h-3.04v5.74c0 .573.14 1.013.42 1.32.294.307.707.46 1.24.46.587 0 1.087-.167 1.5-.5l.6 1.38Zm11.55-4.62c0 .147-.013.34-.04.58h-8.6c.12.933.527 1.687 1.22 2.26.707.56 1.58.84 2.62.84 1.267 0 2.287-.427 3.06-1.28l1.06 1.24c-.48.56-1.08.987-1.8 1.28-.707.293-1.5.44-2.38.44-1.12 0-2.113-.227-2.98-.68a5.053 5.053 0 0 1-2.02-1.94c-.467-.827-.7-1.76-.7-2.8 0-1.027.227-1.953.68-2.78a4.964 4.964 0 0 1 1.9-1.92c.813-.467 1.727-.7 2.74-.7 1.013 0 1.913.233 2.7.7.8.453 1.42 1.093 1.86 1.92.453.827.68 1.773.68 2.84Zm-5.24-3.84c-.92 0-1.693.28-2.32.84-.613.56-.973 1.293-1.08 2.2h6.8c-.107-.893-.473-1.62-1.1-2.18-.613-.573-1.38-.86-2.3-.86Z" fill="#F65261"/></svg>